<svg width="25" height="29" viewBox="0 0 25 29" fill="none" xmlns="http://www.w3.org/2000/svg">
<path d="M12.5 14.1237C16.4453 14.1237 19.6429 10.9624 19.6429 7.06185C19.6429 3.16128 16.4453 0 12.5 0C8.55469 0 5.35714 3.16128 5.35714 7.06185C5.35714 10.9624 8.55469 14.1237 12.5 14.1237ZM17.5 15.8892H16.5681C15.3292 16.4519 13.9509 16.7719 12.5 16.7719C11.0491 16.7719 9.67634 16.4519 8.43192 15.8892H7.5C3.35937 15.8892 0 19.2104 0 23.3041V25.5992C0 27.0612 1.19978 28.2474 2.67857 28.2474H22.3214C23.8002 28.2474 25 27.0612 25 25.5992V23.3041C25 19.2104 21.6406 15.8892 17.5 15.8892Z" fill="black"/>
</svg>
